<svg xmlns="http://www.w3.org/2000/svg" width="20" height="15.833" viewBox="0 0 20 15.833">
  <g id="Group_1728" data-name="Group 1728" transform="translate(0 -2.083)">
    <path id="Path_3691" data-name="Path 3691" d="M11.492,5a.4.4,0,0,0,.158.242A5.592,5.592,0,0,0,15,6.25a4.85,4.85,0,0,0,.775-.058.425.425,0,0,1,.35.117.4.4,0,0,1,.125.35A2.512,2.512,0,0,1,12,8.017a.408.408,0,0,0-.383-.108.392.392,0,0,0-.3.258,6.025,6.025,0,0,1-.35.742.408.408,0,0,0,.092.517,4.167,4.167,0,1,0,0-6.333.408.408,0,0,0-.092.525A4.092,4.092,0,0,1,11.492,5Z" fill="#fff"/>
    <path id="Path_3692" data-name="Path 3692" d="M13.75,11.25a6.258,6.258,0,0,0-1.983.325.423.423,0,0,0-.158.692A7.442,7.442,0,0,1,13.75,17.5h0a.425.425,0,0,0,.108.283.4.4,0,0,0,.283.117h5.442A.417.417,0,0,0,20,17.5a6.25,6.25,0,0,0-6.25-6.25Z" fill="#fff"/>
    <path id="Path_3693" data-name="Path 3693" d="M10.417,6.25A4.167,4.167,0,1,0,6.25,10.417,4.167,4.167,0,0,0,10.417,6.25ZM3.833,5.633a.425.425,0,0,1,.25-.283.433.433,0,0,1,.367,0,5.833,5.833,0,0,0,3.05.9,4.85,4.85,0,0,0,.775-.058.425.425,0,0,1,.35.117.4.4,0,0,1,.125.35,2.508,2.508,0,1,1-5-.408,2.45,2.45,0,0,1,.083-.617Z" fill="#fff"/>
    <path id="Path_3694" data-name="Path 3694" d="M12.5,17.5A6.25,6.25,0,1,0,0,17.5a.417.417,0,0,0,.417.417H12.083A.417.417,0,0,0,12.5,17.5Z" fill="#fff"/>
  </g>
</svg>
