<svg xmlns="http://www.w3.org/2000/svg" width="18" height="22.724" viewBox="0 0 18 22.724">
  <g id="streamline-icon-alarm-bell-1_16x16" data-name="streamline-icon-alarm-bell-1@16x16" transform="translate(-1.66)">
    <g id="Group_1694" data-name="Group 1694" transform="translate(1.66 0)">
      <path id="Path_3672" data-name="Path 3672" d="M10.817,14H6.575a.237.237,0,0,0-.227.208,2.5,2.5,0,0,0,0,.265,2.367,2.367,0,0,0,4.734,0,2.5,2.5,0,0,0,0-.265A.237.237,0,0,0,10.817,14Z" transform="translate(0.309 5.883)" fill="#5c7080"/>
      <path id="Path_3673" data-name="Path 3673" d="M19.612,18.255a15.424,15.424,0,0,1-1.657-6.95v-.72a8.626,8.626,0,0,0-3.664-7.224A5.975,5.975,0,0,0,12.085,2.5V1.42a1.42,1.42,0,1,0-2.841,0V2.509a6.325,6.325,0,0,0-2.7,1.212,8.692,8.692,0,0,0-3.172,6.865v.72a15.424,15.424,0,0,1-1.657,6.95.483.483,0,0,0,0,.454.492.492,0,0,0,.426.227H19.186a.492.492,0,0,0,.407-.227.483.483,0,0,0,.019-.454Z" transform="translate(-1.66 0)" fill="#5c7080"/>
    </g>
  </g>
</svg>
