<svg xmlns="http://www.w3.org/2000/svg" width="22" height="22" viewBox="0 0 22 22">
  <path id="Path_3677" data-name="Path 3677" d="M8.545,16.423H8.5A1.652,1.652,0,0,1,7.18,15.7L4.938,12.517a.688.688,0,1,1,1.124-.792l2.246,3.187.009.014a.274.274,0,0,0,.446.013l.008-.01,7.189-9.1a.688.688,0,0,1,1.079.853L9.853,15.777A1.653,1.653,0,0,1,8.545,16.423Z" fill="#fff"/>
  <path id="Path_3678" data-name="Path 3678" d="M11,0a11,11,0,0,1,7.778,18.778A11,11,0,0,1,3.222,3.221,10.928,10.928,0,0,1,11,0Zm0,20.625A9.625,9.625,0,1,0,1.375,11,9.636,9.636,0,0,0,11,20.624Z" fill="#fff"/>
</svg>
