<svg xmlns="http://www.w3.org/2000/svg" width="35.75" height="35.75" viewBox="0 0 35.75 35.75">
  <g id="streamline-icon-buildings-1_36x36" data-name="streamline-icon-buildings-1@36x36" transform="translate(-0.125 -0.125)">
    <path id="Path_3654" data-name="Path 3654" d="M11.25,22.375H4.5a1,1,0,0,1,0-2h6.75a1,1,0,0,1,0,2Z" fill="#41b780"/>
    <path id="Path_3655" data-name="Path 3655" d="M11.25,26.875H4.5a1,1,0,0,1,0-2h6.75a1,1,0,0,1,0,2Z" fill="#41b780"/>
    <path id="Path_3656" data-name="Path 3656" d="M11.25,31.375H4.5a1,1,0,0,1,0-2h6.75a1,1,0,0,1,0,2Z" fill="#41b780"/>
    <path id="Path_3657" data-name="Path 3657" d="M11.25,13.375H4.5a1,1,0,0,1,0-2h6.75a1,1,0,0,1,0,2Z" fill="#41b780"/>
    <path id="Path_3659" data-name="Path 3659" d="M30.375,22.375h-2.25a1,1,0,0,1,0-2h2.25a1,1,0,0,1,0,2Z" fill="#41b780"/>
    <path id="Path_3660" data-name="Path 3660" d="M30.375,26.875h-2.25a1,1,0,0,1,0-2h2.25a1,1,0,0,1,0,2Z" fill="#41b780"/>
    <path id="Path_3661" data-name="Path 3661" d="M30.375,31.375h-2.25a1,1,0,0,1,0-2h2.25a1,1,0,0,1,0,2Z" fill="#41b780"/>
    <path id="Path_3662" data-name="Path 3662" d="M30.375,17.875h-2.25a1,1,0,0,1,0-2h2.25a1,1,0,0,1,0,2Z" fill="#41b780"/>
    <path id="Path_3663" data-name="Path 3663" d="M1.875,4.625h12a1.752,1.752,0,0,1,1.75,1.75v28.5a1,1,0,0,1-1,1H1.875a1.752,1.752,0,0,1-1.75-1.75V6.375A1.752,1.752,0,0,1,1.875,4.625Zm11.75,2H2.125v27.25h11.5Z" fill="#41b780"/>
    <path id="Path_3664" data-name="Path 3664" d="M14.625,18.125h9a1,1,0,0,1,1,1v15.75a1,1,0,0,1-1,1h-9a1,1,0,0,1-1-1V19.125A1,1,0,0,1,14.625,18.125Zm8,2h-7v13.75h7Z" fill="#41b780"/>
    <path id="Path_3665" data-name="Path 3665" d="M24.375,9.125h9.75a1.752,1.752,0,0,1,1.75,1.75v23.25a1.752,1.752,0,0,1-1.75,1.75h-10.5a1,1,0,0,1-1-1v-24A1.752,1.752,0,0,1,24.375,9.125Zm9.5,2h-9.25v22.75h9.25Z" fill="#41b780"/>
    <path id="Path_3666" data-name="Path 3666" d="M5.625,6.625a1,1,0,0,1-1-1v-4.5a1,1,0,0,1,2,0v4.5A1,1,0,0,1,5.625,6.625Z" fill="#41b780"/>
  </g>
</svg>
