<svg xmlns="http://www.w3.org/2000/svg" width="20" height="20" viewBox="0 0 20 20">
  <g id="Group_1631" data-name="Group 1631" transform="translate(-6.25 -6.163)">
    <path id="Path_1077" data-name="Path 1077" d="M6.5,6.417a.869.869,0,0,0-.255.614V16.6a.869.869,0,0,0,.87.869h6.957a.869.869,0,0,0,.87-.869V7.045a.869.869,0,0,0-.87-.869L7.12,6.163a.87.87,0,0,0-.615.254Z" transform="translate(0 0)" fill="#dee7ef"/>
    <path id="Path_1078" data-name="Path 1078" d="M176.576,6.163l-6.957.012a.869.869,0,0,0-.87.869v4.345a.869.869,0,0,0,.87.869h6.957a.869.869,0,0,0,.87-.869V7.031A.869.869,0,0,0,176.576,6.163Z" transform="translate(-151.196 0)" fill="#dee7ef"/>
    <path id="Path_1079" data-name="Path 1079" d="M14.691,212.166a.869.869,0,0,0,.255-.614v-4.345a.869.869,0,0,0-.87-.869H7.12a.869.869,0,0,0-.87.869v4.332a.869.869,0,0,0,.87.869l6.957.012A.87.87,0,0,0,14.691,212.166Z" transform="translate(0 -186.259)" fill="#dee7ef"/>
    <path id="Path_1080" data-name="Path 1080" d="M176.576,131.35H169.62a.869.869,0,0,0-.87.869v9.559a.869.869,0,0,0,.87.869l6.957-.012a.869.869,0,0,0,.87-.869v-9.547A.869.869,0,0,0,176.576,131.35Z" transform="translate(-151.196 -116.484)" fill="#dee7ef"/>
  </g>
</svg>
