<svg xmlns="http://www.w3.org/2000/svg" width="16" height="16.696" viewBox="0 0 16 16.696">
  <g id="Group_3" data-name="Group 3" transform="translate(-6.25)">
    <path id="Path_1" data-name="Path 1" d="M70.141,131.25h-.7a.7.7,0,0,0,0,1.391h.7a.7.7,0,0,0,0-1.391Z" transform="translate(-59.022 -123.946)" fill="#1f2b34"/>
    <path id="Path_2" data-name="Path 2" d="M132.641,131.25h-.7a.7.7,0,0,0,0,1.391h.7a.7.7,0,0,0,0-1.391Z" transform="translate(-118.043 -123.946)" fill="#1f2b34"/>
    <path id="Path_3" data-name="Path 3" d="M195.141,131.25h-.7a.7.7,0,0,0,0,1.391h.7a.7.7,0,0,0,0-1.391Z" transform="translate(-177.065 -123.946)" fill="#1f2b34"/>
    <path id="Path_4" data-name="Path 4" d="M70.141,181.25h-.7a.7.7,0,1,0,0,1.391h.7a.7.7,0,0,0,0-1.391Z" transform="translate(-59.022 -171.163)" fill="#1f2b34"/>
    <path id="Path_5" data-name="Path 5" d="M132.641,181.25h-.7a.7.7,0,0,0,0,1.391h.7a.7.7,0,1,0,0-1.391Z" transform="translate(-118.043 -171.163)" fill="#1f2b34"/>
    <path id="Path_6" data-name="Path 6" d="M195.141,181.25h-.7a.7.7,0,0,0,0,1.391h.7a.7.7,0,1,0,0-1.391Z" transform="translate(-177.065 -171.163)" fill="#1f2b34"/>
    <path id="Path_7" data-name="Path 7" d="M70.141,231.25h-.7a.7.7,0,0,0,0,1.391h.7a.7.7,0,1,0,0-1.391Z" transform="translate(-59.022 -218.38)" fill="#1f2b34"/>
    <path id="Path_8" data-name="Path 8" d="M132.641,231.25h-.7a.7.7,0,0,0,0,1.391h.7a.7.7,0,1,0,0-1.391Z" transform="translate(-118.043 -218.38)" fill="#1f2b34"/>
    <path id="Path_9" data-name="Path 9" d="M195.141,231.25h-.7a.7.7,0,0,0,0,1.391h.7a.7.7,0,1,0,0-1.391Z" transform="translate(-177.065 -218.38)" fill="#1f2b34"/>
    <path id="Path_10" data-name="Path 10" d="M20.859,2.087H18.946a.174.174,0,0,1-.174-.174V.7A.7.7,0,1,0,17.38.7V4a.522.522,0,0,1-1.043,0V2.435a.348.348,0,0,0-.348-.348H11.641a.174.174,0,0,1-.174-.173V.7a.7.7,0,0,0-1.391,0V4A.522.522,0,0,1,9.033,4V2.435a.348.348,0,0,0-.348-.348H7.641A1.391,1.391,0,0,0,6.25,3.478V15.3A1.391,1.391,0,0,0,7.641,16.7H20.859A1.391,1.391,0,0,0,22.25,15.3V3.478A1.391,1.391,0,0,0,20.859,2.087Zm0,12.87a.348.348,0,0,1-.348.348H7.989a.348.348,0,0,1-.348-.348V6.609a.348.348,0,0,1,.348-.348H20.511a.348.348,0,0,1,.348.348Z" fill="#1f2b34"/>
  </g>
</svg>
