<svg xmlns="http://www.w3.org/2000/svg" width="18" height="21.593" viewBox="0 0 18 21.593">
  <g id="streamline-icon-bin-2_16x16" data-name="streamline-icon-bin-2@16x16" transform="translate(-1.333 -0.005)">
    <g id="Group_1692" data-name="Group 1692" transform="translate(1.333 0.005)">
      <path id="Path_3670" data-name="Path 3670" d="M16.617,6H3.117a.45.45,0,0,0-.45.45V17.7a1.8,1.8,0,0,0,1.8,1.8h10.8a1.8,1.8,0,0,0,1.8-1.8V6.441A.45.45,0,0,0,16.617,6ZM8.292,16.35a.675.675,0,0,1-1.35,0V8.583a.675.675,0,1,1,1.35,0Zm4.5,0a.675.675,0,0,1-1.35,0V8.583a.675.675,0,1,1,1.35,0Z" transform="translate(-0.867 2.093)" fill="#5c7080"/>
      <path id="Path_3671" data-name="Path 3671" d="M18.361,4.363A10.593,10.593,0,0,0,14.653,3.4a4.446,4.446,0,0,0-8.64,0,11.331,11.331,0,0,0-3.6.9,1.8,1.8,0,0,0-1.08,1.53.9.9,0,0,0,.9.9h16.2a.9.9,0,0,0,.9-.9A1.674,1.674,0,0,0,18.361,4.363ZM10.333,1.8a2.6,2.6,0,0,1,2.34,1.422,38.7,38.7,0,0,0-4.68,0A2.547,2.547,0,0,1,10.333,1.8Z" transform="translate(-1.333 -0.005)" fill="#5c7080"/>
    </g>
  </g>
</svg>
