<svg xmlns="http://www.w3.org/2000/svg" width="20" height="20" viewBox="0 0 20 20">
  <g id="Group_1375" data-name="Group 1375" transform="translate(-0.879 -0.869)">
    <path id="Path_2811" data-name="Path 2811" d="M51,48.1a.419.419,0,0,0-.3-.124h0a.419.419,0,0,0-.3.123l-9.155,9.158a.419.419,0,0,0,0,.593L45.4,62A.419.419,0,0,0,46,62l9.151-9.151a.419.419,0,0,0,0-.592Z" transform="translate(-37.554 -43.947)" fill="#5c7080"/>
    <path id="Path_2812" data-name="Path 2812" d="M2.857,208.3a.42.42,0,0,0-.7.2L.89,213.759a.419.419,0,0,0,.111.394.425.425,0,0,0,.394.111l5.258-1.257a.419.419,0,0,0,.2-.7Z" transform="translate(0 -193.405)" fill="#5c7080"/>
    <path id="Path_2813" data-name="Path 2813" d="M205.809,3.262l-1.78-1.78a2.1,2.1,0,0,0-2.961,0L199.88,2.669a.419.419,0,0,0,0,.593L204.03,7.41a.419.419,0,0,0,.593,0l1.187-1.189a2.1,2.1,0,0,0,0-2.959Z" transform="translate(-185.542)" fill="#5c7080"/>
  </g>
</svg>
