<svg xmlns="http://www.w3.org/2000/svg" width="35.75" height="35.75" viewBox="0 0 35.75 35.75">
  <g id="streamline-icon-team-meeting_36x36" data-name="streamline-icon-team-meeting@36x36" transform="translate(-0.123 -0.125)">
    <path id="Path_3645" data-name="Path 3645" d="M6.748,21.5a4.938,4.938,0,1,1-4.937,4.938A4.943,4.943,0,0,1,6.748,21.5Zm0,7.875a2.938,2.938,0,1,0-2.937-2.937A2.941,2.941,0,0,0,6.748,29.375Z" fill="#41b780"/>
    <path id="Path_3646" data-name="Path 3646" d="M12.374,35.875a1,1,0,0,1-.883-.53,5.375,5.375,0,0,0-9.485,0A1,1,0,1,1,.241,34.4a7.375,7.375,0,0,1,13.015,0,1,1,0,0,1-.881,1.471Z" fill="#41b780"/>
    <path id="Path_3647" data-name="Path 3647" d="M29.249,21.5a4.938,4.938,0,1,1-4.937,4.938A4.943,4.943,0,0,1,29.249,21.5Zm0,7.875a2.938,2.938,0,1,0-2.937-2.937A2.941,2.941,0,0,0,29.249,29.375Z" fill="#41b780"/>
    <path id="Path_3648" data-name="Path 3648" d="M34.874,35.875a1,1,0,0,1-.883-.53,5.375,5.375,0,0,0-9.485,0,1,1,0,1,1-1.765-.941,7.375,7.375,0,0,1,13.015,0,1,1,0,0,1-.881,1.471Z" fill="#41b780"/>
    <path id="Path_3649" data-name="Path 3649" d="M18,10a4.938,4.938,0,1,1,4.938-4.938A4.943,4.943,0,0,1,18,10Zm0-7.875a2.938,2.938,0,1,0,2.938,2.938A2.941,2.941,0,0,0,18,2.125Z" fill="#41b780"/>
    <path id="Path_3650" data-name="Path 3650" d="M22.872,13.375a1,1,0,0,1-.762-.352,5.4,5.4,0,0,0-8.227,0,1,1,0,1,1-1.523-1.3,7.4,7.4,0,0,1,11.273,0,1,1,0,0,1-.761,1.648Z" fill="#41b780"/>
    <path id="Path_3651" data-name="Path 3651" d="M18,31.377a13.408,13.408,0,0,1-4.779-.882,1,1,0,0,1,.712-1.869,11.4,11.4,0,0,0,8.2-.025,1,1,0,1,1,.724,1.864A13.409,13.409,0,0,1,18,31.377Z" fill="#41b780"/>
    <path id="Path_3652" data-name="Path 3652" d="M5.678,20.125a1,1,0,0,1-.995-.908c-.042-.454-.061-.84-.061-1.217A13.372,13.372,0,0,1,8.838,8.27a1,1,0,1,1,1.367,1.46A11.365,11.365,0,0,0,6.622,18c0,.314.017.642.053,1.034a1,1,0,0,1-.9,1.087Q5.724,20.125,5.678,20.125Z" fill="#41b780"/>
    <path id="Path_3653" data-name="Path 3653" d="M30.318,20.125q-.044,0-.09,0a1,1,0,0,1-.908-1.084c.036-.408.053-.738.053-1.037A11.361,11.361,0,0,0,25.79,9.73a1,1,0,0,1,1.367-1.46A13.367,13.367,0,0,1,31.373,18c0,.359-.019.744-.061,1.213A1,1,0,0,1,30.318,20.125Z" fill="#41b780"/>
  </g>
</svg>
