<svg xmlns="http://www.w3.org/2000/svg" width="8" height="7" viewBox="0 0 8 7">
  <g id="filter" transform="translate(-652 -312)">
    <path id="Line_82" data-name="Line 82" d="M7,.5H0A.5.5,0,0,1-.5,0,.5.5,0,0,1,0-.5H7a.5.5,0,0,1,.5.5A.5.5,0,0,1,7,.5Z" transform="translate(652.5 312.5)" fill="#707070"/>
    <path id="Line_83" data-name="Line 83" d="M5,.5H0A.5.5,0,0,1-.5,0,.5.5,0,0,1,0-.5H5a.5.5,0,0,1,.5.5A.5.5,0,0,1,5,.5Z" transform="translate(653.5 314.5)" fill="#707070"/>
    <path id="Line_84" data-name="Line 84" d="M3,.5H0A.5.5,0,0,1-.5,0,.5.5,0,0,1,0-.5H3a.5.5,0,0,1,.5.5A.5.5,0,0,1,3,.5Z" transform="translate(654.5 316.5)" fill="#707070"/>
    <path id="Line_85" data-name="Line 85" d="M1,.5H0A.5.5,0,0,1-.5,0,.5.5,0,0,1,0-.5H1a.5.5,0,0,1,.5.5A.5.5,0,0,1,1,.5Z" transform="translate(655.5 318.5)" fill="#707070"/>
  </g>
</svg>
