<svg xmlns="http://www.w3.org/2000/svg" width="20" height="16.976" viewBox="0 0 20 16.976">
  <g id="streamline-icon-folder-open_600x600_1_" data-name="streamline-icon-folder-open@600x600 (1)" transform="translate(-5.467 -50)">
    <path id="Path_657" data-name="Path 657" d="M25.178,153.012a1.266,1.266,0,0,0-.985-.466H14.126a.424.424,0,0,1-.417-.34l-.236-1.184A1.273,1.273,0,0,0,12.225,150H6.741a1.273,1.273,0,0,0-1.249,1.528L7.7,162.562a1.273,1.273,0,0,0,1.249,1.019H22.5a1.273,1.273,0,0,0,1.248-1.019l1.7-8.488h0A1.273,1.273,0,0,0,25.178,153.012Z" transform="translate(0 -96.605)" fill="#1f2b34"/>
    <path id="Path_658" data-name="Path 658" d="M56.349,52.546a.849.849,0,0,0,.832-.66.223.223,0,0,1,.206-.188H70.354a.424.424,0,0,1,.424.424v2.122a.849.849,0,1,0,1.7,0V51.7a1.7,1.7,0,0,0-1.7-1.7H57.2a1.7,1.7,0,0,0-1.7,1.7A.849.849,0,0,0,56.349,52.546Z" transform="translate(-48.334 0)" fill="#1f2b34"/>
  </g>
</svg>
