<svg id="Group_2385" data-name="Group 2385" xmlns="http://www.w3.org/2000/svg" width="19" height="19" viewBox="0 0 19 19">
  <g id="Group_1743" data-name="Group 1743" transform="translate(0 0)">
    <path id="Path_3696" data-name="Path 3696" d="M26.25,3.491a1.583,1.583,0,0,0-.467-1.116L23.875.467A1.583,1.583,0,0,0,22.759,0H13.583A1.583,1.583,0,0,0,12,1.583V7.347a.206.206,0,0,0,.19.2,7.979,7.979,0,0,1,1.18.063.2.2,0,0,0,.214-.2V1.979a.4.4,0,0,1,.4-.4h8.613a.372.372,0,0,1,.277.119L24.548,3.38a.372.372,0,0,1,.119.277V14.25a.4.4,0,0,1-.4.4H18.84a.2.2,0,0,0-.19.166,7.046,7.046,0,0,1-.317,1.156.19.19,0,0,0,.182.261h6.151a1.583,1.583,0,0,0,1.583-1.583Z" transform="translate(-7.25 0)" fill="#00adce"/>
    <path id="Path_3697" data-name="Path 3697" d="M5.146,22a5.146,5.146,0,1,0,5.146,5.146A5.146,5.146,0,0,0,5.146,22Zm.7,8.075a.15.15,0,0,0-.111.158v.277a.594.594,0,1,1-1.187,0v-.261a.135.135,0,0,0-.127-.135H3.958a.594.594,0,0,1,0-1.187H5.542a.467.467,0,0,0,.467-.467.459.459,0,0,0-.293-.435l-1.631-.657A1.647,1.647,0,0,1,4.4,24.2h0a.143.143,0,0,0,.127-.15v-.277a.594.594,0,0,1,1.188,0v.261a.135.135,0,0,0,.135.135h.483a.594.594,0,0,1,0,1.188H4.75a.467.467,0,0,0-.467.467.459.459,0,0,0,.293.435l1.631.657a1.647,1.647,0,0,1-.332,3.167Z" transform="translate(0 -13.292)" fill="#00adce"/>
  </g>
</svg>
