<svg xmlns="http://www.w3.org/2000/svg" width="15.042" height="19" viewBox="0 0 15.042 19">
  <g id="Group_2386" data-name="Group 2386" transform="translate(-5 0)">
    <g id="Group_1745" data-name="Group 1745" transform="translate(5 0)">
      <path id="Path_3698" data-name="Path 3698" d="M19.812,3.792,16.25.23A.792.792,0,0,0,15.687,0h-9.1A1.583,1.583,0,0,0,5,1.583V17.417A1.583,1.583,0,0,0,6.583,19H18.458a1.583,1.583,0,0,0,1.583-1.583V4.354a.792.792,0,0,0-.23-.562ZM17.667,17.417H7.375a.792.792,0,0,1-.792-.792V2.375a.792.792,0,0,1,.792-.792H15.03a.792.792,0,0,1,.562.23l2.636,2.636a.792.792,0,0,1,.23.562V16.625A.792.792,0,0,1,17.667,17.417Z" transform="translate(-5 0)" fill="#f78d1e"/>
      <path id="Path_3699" data-name="Path 3699" d="M17.727,11.529A1.837,1.837,0,0,0,16.563,9.8l-1.631-.649a.277.277,0,0,1-.174-.253.269.269,0,0,1,.269-.269H16.61a.792.792,0,1,0,0-1.583h-.2a.2.2,0,0,1-.166-.2.793.793,0,1,0-1.583.079.2.2,0,0,1-.142.19,1.852,1.852,0,0,0-.174,3.507l1.631.649a.269.269,0,0,1-.1.522H14.291a.792.792,0,0,0,0,1.583h.2a.2.2,0,0,1,.2.2A.793.793,0,0,0,16.27,13.5a.2.2,0,0,1,.143-.19,1.845,1.845,0,0,0,1.314-1.781Z" transform="translate(-9.937 -3.684)" fill="#f78d1e"/>
      <path id="Path_3700" data-name="Path 3700" d="M12,30.4v.792a.4.4,0,0,0,.4.4h2.573a.2.2,0,0,0,.2-.2V30.2a.2.2,0,0,0-.2-.2H12.4A.4.4,0,0,0,12,30.4Z" transform="translate(-9.229 -18.125)" fill="#f78d1e"/>
      <path id="Path_3701" data-name="Path 3701" d="M12,36.4v.792a.4.4,0,0,0,.4.4h2.573a.2.2,0,0,0,.2-.2V36.2a.2.2,0,0,0-.2-.2H12.4A.4.4,0,0,0,12,36.4Z" transform="translate(-9.229 -21.75)" fill="#f78d1e"/>
      <path id="Path_3702" data-name="Path 3702" d="M22,31.385a.2.2,0,0,0,.2.2H26.75a.4.4,0,0,0,.4-.4V30.4a.4.4,0,0,0-.4-.4H22.2a.2.2,0,0,0-.2.2Z" transform="translate(-15.271 -18.125)" fill="#f78d1e"/>
      <path id="Path_3703" data-name="Path 3703" d="M26.75,36H22.2a.2.2,0,0,0-.2.2v1.188a.2.2,0,0,0,.2.2H26.75a.4.4,0,0,0,.4-.4V36.4A.4.4,0,0,0,26.75,36Z" transform="translate(-15.271 -21.75)" fill="#f78d1e"/>
    </g>
  </g>
</svg>

