<svg xmlns="http://www.w3.org/2000/svg" width="19" height="19" viewBox="0 0 19 19">
  <g id="Group_2384" data-name="Group 2384" transform="translate(0 0)">
    <g id="Group_1741" data-name="Group 1741" transform="translate(0 0)">
      <path id="Path_3694" data-name="Path 3694" d="M1.979,1.583H5.6a.4.4,0,0,1,.356.222l.641,1.282a1.583,1.583,0,0,0,1.417.871h7.03a.4.4,0,0,1,.4.4v3.23a.182.182,0,0,0,.143.182,7.006,7.006,0,0,1,1.156.451.19.19,0,0,0,.285-.166V3.958a1.583,1.583,0,0,0-1.583-1.583H8.257a.4.4,0,0,1-.34-.222L7.26.871A1.583,1.583,0,0,0,5.842,0H1.583A1.583,1.583,0,0,0,0,1.583V13.062a1.583,1.583,0,0,0,1.583,1.583H7.362a.19.19,0,0,0,.2-.206V13.268a.19.19,0,0,0-.2-.206H1.979a.4.4,0,0,1-.4-.4V1.979A.4.4,0,0,1,1.979,1.583Z" transform="translate(0 0)" fill="#41b780"/>
      <path id="Path_3695" data-name="Path 3695" d="M27.146,22a5.146,5.146,0,1,0,5.146,5.146A5.146,5.146,0,0,0,27.146,22Zm.7,8.075a.15.15,0,0,0-.111.158v.277a.594.594,0,0,1-1.187,0v-.261a.135.135,0,0,0-.127-.135h-.467a.594.594,0,0,1,0-1.187h1.583a.467.467,0,0,0,.467-.467.459.459,0,0,0-.293-.435l-1.631-.657A1.647,1.647,0,0,1,26.4,24.2h0a.142.142,0,0,0,.127-.15v-.277a.594.594,0,0,1,1.188,0v.261a.135.135,0,0,0,.135.135h.483a.594.594,0,1,1,0,1.188H26.75a.467.467,0,0,0-.467.467.459.459,0,0,0,.293.435l1.631.657a1.647,1.647,0,0,1-.333,3.167Z" transform="translate(-13.292 -13.292)" fill="#41b780"/>
    </g>
  </g>
</svg>
