<svg xmlns="http://www.w3.org/2000/svg" width="4.889" height="11" viewBox="0 0 4.889 11">
  <g id="Group_1236" data-name="Group 1236" transform="translate(-4.158 -287.667)">
    <path id="Path_705" data-name="Path 705" d="M120.991,62.5a1.222,1.222,0,1,1-1.222,1.222A1.222,1.222,0,0,1,120.991,62.5Zm1.833,11h-3.259a.815.815,0,0,1,0-1.63h.611a.2.2,0,0,0,.2-.2V68a.2.2,0,0,0-.2-.2h-.611a.815.815,0,0,1,0-1.63h.815a1.63,1.63,0,0,1,1.63,1.63v3.87a.2.2,0,0,0,.2.2h.611a.815.815,0,1,1,0,1.63Z" transform="translate(-114.592 225.167)" fill="#00adce"/>
  </g>
</svg>
