<svg id="streamline-icon-money-cash-dollar-coin_20x20" data-name="streamline-icon-money-cash-dollar-coin@20x20" xmlns="http://www.w3.org/2000/svg" width="20" height="20" viewBox="0 0 20 20">
  <path id="Path_3571" data-name="Path 3571" d="M10,0A10,10,0,1,0,20,10,10,10,0,0,0,10,0Zm1.071,15.907v.879a1.071,1.071,0,1,1-2.143,0V15.9a3.6,3.6,0,0,1-2.463-2.877,1.073,1.073,0,0,1,2.121-.313,1.429,1.429,0,0,0,2.841-.214,1.1,1.1,0,0,0-.664-1L8.391,10.476A3.231,3.231,0,0,1,6.429,7.5a3.571,3.571,0,0,1,2.5-3.407V3.214a1.071,1.071,0,0,1,2.143,0V4.1a3.6,3.6,0,0,1,2.463,2.877,1.073,1.073,0,0,1-.9,1.217,1.059,1.059,0,0,1-1.219-.9A1.429,1.429,0,0,0,8.571,7.5a1.1,1.1,0,0,0,.664,1.007l2.373,1.017A3.231,3.231,0,0,1,13.571,12.5a3.571,3.571,0,0,1-2.5,3.407Z" fill="#5c7080"/>
</svg>
