<svg xmlns="http://www.w3.org/2000/svg" width="36.003" height="34.166" viewBox="0 0 36.003 34.166">
  <g id="streamline-icon-real-estate-action-house-warning_46x46" data-name="streamline-icon-real-estate-action-house-warning@46x46" transform="translate(-0.437 -1.326)">
    <path id="Path_3577" data-name="Path 3577" d="M13.987,34.725H9.454a3.27,3.27,0,0,1-3.267-3.267V20.125a1,1,0,0,1,2,0V31.458a1.268,1.268,0,0,0,1.267,1.267h4.533a1,1,0,0,1,0,2Z" transform="translate(-1.217 -3.766)" fill="#41b780"/>
    <path id="Path_3578" data-name="Path 3578" d="M1.438,15.092a1,1,0,0,1-.646-1.763L14.06,2.1a3.257,3.257,0,0,1,4.22,0l11.007,9.314A1,1,0,0,1,28,12.943L16.989,3.629a1.263,1.263,0,0,0-1.636,0L2.083,14.856A1,1,0,0,1,1.438,15.092Z" transform="translate(0)" fill="#41b780"/>
    <path id="Path_3579" data-name="Path 3579" d="M34.721,8.408a1,1,0,0,1-1-1V3.875H30.188a1,1,0,0,1,0-2h4.533a1,1,0,0,1,1,1V7.408A1,1,0,0,1,34.721,8.408Z" transform="translate(-6.084 -0.116)" fill="#41b780"/>
    <path id="Path_3580" data-name="Path 3580" d="M32.91,39.508a1.567,1.567,0,1,1,1.567-1.567A1.568,1.568,0,0,1,32.91,39.508Z" transform="translate(-6.54 -7.416)" fill="#41b780"/>
    <path id="Path_3581" data-name="Path 3581" d="M33.063,32.846a1,1,0,0,1-1-1V27.313a1,1,0,1,1,2,0v4.533A1,1,0,0,1,33.063,32.846Z" transform="translate(-6.692 -5.287)" fill="#41b780"/>
    <path id="Path_3582" data-name="Path 3582" d="M37.015,39.258H24.243a3.681,3.681,0,0,1-3.292-5.328l6.386-12.77a3.681,3.681,0,0,1,6.585,0l6.386,12.77a3.681,3.681,0,0,1-3.292,5.328ZM30.629,21.125a1.671,1.671,0,0,0-1.5.93l-6.386,12.77a1.681,1.681,0,0,0,1.5,2.433H37.015a1.681,1.681,0,0,0,1.5-2.433l-6.386-12.77A1.672,1.672,0,0,0,30.629,21.125Z" transform="translate(-4.259 -3.766)" fill="#41b780"/>
  </g>
</svg>
