<svg id="Group_3" data-name="Group 3" xmlns="http://www.w3.org/2000/svg" xmlns:xlink="http://www.w3.org/1999/xlink" width="44.734" height="37.562" viewBox="0 0 44.734 37.562">
  <defs>
    <clipPath id="clip-path">
      <path id="Clip_2" data-name="Clip 2" d="M0,0H44.734V37.562H0Z" fill="none"/>
    </clipPath>
  </defs>
  <path id="Clip_2-2" data-name="Clip 2" d="M0,0H44.734V37.562H0Z" fill="none"/>
  <g id="Group_3-2" data-name="Group 3" clip-path="url(#clip-path)">
    <path id="Fill_1" data-name="Fill 1" d="M14.05,28.548v.541a1.041,1.041,0,0,1-1.043,1.04H7.231v0a1.037,1.037,0,0,1-1.038-1.035c0-.652,0-1.3.008-1.939.008-1.59.016-3.18,0-4.772H1.042A1.04,1.04,0,0,1,.305,20.6L19.982.981A3.388,3.388,0,0,1,24.775,1L44.421,20.6a1.039,1.039,0,0,1-.73,1.781H38.535c-.054,3.724-.037,6.132-.018,8.985.01,1.484.021,3.089.024,5.066,0,.031,0,.062,0,.093A1.041,1.041,0,0,1,37.5,37.562H16.659a1.041,1.041,0,0,1-1.042-1.039V23.4a6.682,6.682,0,0,1,.044-.749,6.577,6.577,0,0,1,.435-1.721A6.746,6.746,0,0,1,16.548,20a6.83,6.83,0,0,1,.483-.712,6.734,6.734,0,0,1,10.04-.708c.021.018.042.037.062.057A6.939,6.939,0,0,1,28.186,20a6.73,6.73,0,0,1,.453.924,6.656,6.656,0,0,1,.308.978,6.824,6.824,0,0,1,.127.743,6.595,6.595,0,0,1-.472,3.317,6.771,6.771,0,0,1-6.235,4.164H20.853a1.041,1.041,0,0,1-1.042-1.04v-.541a1.041,1.041,0,0,1,1.042-1.04h1.514a4.127,4.127,0,0,0,4.074-4.765,4.249,4.249,0,0,0-.56-1.5,4.117,4.117,0,0,0-.552-.706l-.071-.068,0,0a4.154,4.154,0,0,0-1.332-.879,4.116,4.116,0,0,0-4.454.882l-.02.02a4.153,4.153,0,0,0-.98,1.546l-.021.074a3.823,3.823,0,0,0-.207,1.286v11.6H35.97V20.849a1.041,1.041,0,0,1,1.042-1.039h2.978L23.45,3.315a1.505,1.505,0,0,0-2.084-.082L5.311,19.244l-.568.566H7.721a1.041,1.041,0,0,1,1.042,1.039v6.659h4.244a1.041,1.041,0,0,1,1.043,1.04" transform="translate(0 0)" fill="#fff"/>
  </g>
</svg>
