<?xml version="1.0" encoding="utf-8"?>
<!-- Generator: Adobe Illustrator 25.4.1, SVG Export Plug-In . SVG Version: 6.00 Build 0)  -->
<svg version="1.1" id="Layer_1" xmlns="http://www.w3.org/2000/svg" xmlns:xlink="http://www.w3.org/1999/xlink" x="0px" y="0px"
	 viewBox="0 0 18.5 22.6" style="enable-background:new 0 0 18.5 22.6;" xml:space="preserve">
<style type="text/css">
	.st0{fill:#FFFFFF;}
</style>
<g>
	<path class="st0" d="M11.4,19.3c-0.5-0.1-1.1,0.2-1.2,0.7c-0.1,0.3-0.3,0.5-0.6,0.6c-0.5,0.1-1-0.1-1.1-0.6c0,0,0,0,0,0
		c-0.2-0.5-0.7-0.8-1.2-0.7c-0.5,0.2-0.8,0.7-0.7,1.2c0.4,1.2,1.5,2.1,2.8,2.1c1.3,0,2.4-0.9,2.8-2.1c0,0,0,0,0,0
		C12.2,20,11.9,19.4,11.4,19.3z"/>
	<path class="st0" d="M18.2,16.8c-0.1-0.1-1.1-1.5-1.1-6.8c0-4-3-7.3-6.9-7.8V1c0-0.6-0.4-1-1-1c-0.6,0-1,0.4-1,1v1.1
		C4.4,2.6,1.4,5.9,1.4,9.9c0,5-1.1,6.8-1.2,7c-0.2,0.3-0.3,0.7-0.1,1c0.2,0.4,0.5,0.6,0.9,0.6h16.5c0.3,0,0.5-0.1,0.7-0.3
		C18.6,17.8,18.6,17.2,18.2,16.8z M2.6,16.5c0.6-2.1,0.9-4.3,0.8-6.6c0-3.2,2.6-5.9,5.9-5.9c3.2,0,5.9,2.6,5.9,5.9
		c-0.1,2.2,0.2,4.4,0.8,6.6H2.6z"/>
</g>
</svg>
