<svg xmlns="http://www.w3.org/2000/svg" width="20" height="17.5" viewBox="0 0 20 17.5">
  <g id="streamline-icon-folder-home-1_20x20" data-name="streamline-icon-folder-home-1@20x20" transform="translate(0 -1.25)">
    <path id="Path_3569" data-name="Path 3569" d="M20,5a1.25,1.25,0,0,0-1.25-1.25H9.78a.417.417,0,0,1-.372-.23L8.618,1.937A1.245,1.245,0,0,0,7.5,1.25H1.25A1.25,1.25,0,0,0,0,2.5v15a1.25,1.25,0,0,0,1.25,1.25h17.5A1.25,1.25,0,0,0,20,17.5Zm-6.267,6.067a.282.282,0,0,1-.265.182h-.759a.208.208,0,0,0-.208.208v2.708a.417.417,0,0,1-.417.417H7.5a.417.417,0,0,1-.417-.417V11.458a.208.208,0,0,0-.208-.208H6.116a.282.282,0,0,1-.265-.182.274.274,0,0,1,.083-.307L9.61,7.566a.287.287,0,0,1,.365,0l3.676,3.194A.274.274,0,0,1,13.732,11.067Z" fill="#5c7080"/>
  </g>
</svg>
