<svg id="streamline-icon-attachment-1_16x16" data-name="streamline-icon-attachment-1@16x16" xmlns="http://www.w3.org/2000/svg" width="9.337" height="16.151" viewBox="0 0 9.337 16.151">
  <path id="Path_3780" data-name="Path 3780" d="M8,16.151a4.667,4.667,0,0,1-4.667-4.667V3.571a3.42,3.42,0,1,1,6.833,0V9.678a2.193,2.193,0,1,1-4.387,0V4.484a.667.667,0,1,1,1.333,0V9.678a.86.86,0,1,0,1.72,0V3.571a2.087,2.087,0,1,0-4.167,0v7.914a3.333,3.333,0,1,0,6.667,0v-5a.667.667,0,1,1,1.333,0v5A4.667,4.667,0,0,1,8,16.151Z" transform="translate(-3.33 0)" fill="#5c7080"/>
</svg>
