<svg xmlns="http://www.w3.org/2000/svg" width="38" height="40.575" viewBox="0 0 38 40.575">
  <g id="streamline-icon-accounting-invoice-mail_46x46" data-name="streamline-icon-accounting-invoice-mail@46x46" transform="translate(-1.875 -0.438)">
    <path id="Path_3626" data-name="Path 3626" d="M34.339,23.232a1,1,0,0,1-1-1V4.009a1.573,1.573,0,0,0-1.571-1.571H11.2A1.573,1.573,0,0,0,9.625,4.009V22.232a1,1,0,0,1-2,0V4.009A3.575,3.575,0,0,1,11.2.438H31.768a3.575,3.575,0,0,1,3.571,3.571V22.232A1,1,0,0,1,34.339,23.232Z" transform="translate(-0.607 0)" fill="#41b780"/>
    <path id="Path_3627" data-name="Path 3627" d="M4.161,20.663a2.3,2.3,0,0,1,1.42.495l12.739,10.1a4.143,4.143,0,0,0,5.114,0l12.735-10.1a2.286,2.286,0,0,1,3.706,1.789V39.577A3.575,3.575,0,0,1,36.3,43.148H5.446a3.575,3.575,0,0,1-3.571-3.571V22.948a2.286,2.286,0,0,1,2.285-2.285ZM20.875,34.144a6.17,6.17,0,0,1-3.794-1.312L4.338,22.725a.286.286,0,0,0-.3-.033.287.287,0,0,0-.161.257V39.577a1.573,1.573,0,0,0,1.571,1.571H36.3a1.573,1.573,0,0,0,1.571-1.571V22.948a.287.287,0,0,0-.161-.256.29.29,0,0,0-.3.033l-12.739,10.1A6.173,6.173,0,0,1,20.875,34.144Z" transform="translate(0 -2.136)" fill="#41b780"/>
    <path id="Path_3628" data-name="Path 3628" d="M35.342,36.342a1,1,0,0,1-.707-.293l-5.043-5.043a1,1,0,0,1,1.414-1.414l5.043,5.043a1,1,0,0,1-.707,1.707Z" transform="translate(-2.896 -3.048)" fill="#41b780"/>
    <path id="Path_3629" data-name="Path 3629" d="M10.063,36.342a1,1,0,0,1-.707-1.707L14.4,29.592a1,1,0,1,1,1.414,1.414L10.77,36.049A1,1,0,0,1,10.063,36.342Z" transform="translate(-0.759 -3.048)" fill="#41b780"/>
    <path id="Path_3630" data-name="Path 3630" d="M26.376,20.774a4.817,4.817,0,0,1-3.829-1.9,1,1,0,0,1,1.591-1.212,2.815,2.815,0,0,0,2.35,1.107h.04c1.375,0,2.537-.757,2.537-1.652,0-.8-1.017-1.65-2.53-1.65a5.178,5.178,0,0,1-3.1-.977A3.377,3.377,0,0,1,22,11.815,3.375,3.375,0,0,1,23.436,9.14a5.176,5.176,0,0,1,3.079-.976,4.81,4.81,0,0,1,4,1.895,1,1,0,1,1-1.592,1.21,2.809,2.809,0,0,0-2.349-1.106h-.041c-1.374,0-2.535.757-2.535,1.652s1.161,1.654,2.535,1.654a5.171,5.171,0,0,1,3.1.977,3.374,3.374,0,0,1,1.433,2.674,3.375,3.375,0,0,1-1.436,2.675,5.178,5.178,0,0,1-3.081.977C26.491,20.773,26.433,20.774,26.376,20.774Z" transform="translate(-2.125 -0.815)" fill="#41b780"/>
    <path id="Path_3631" data-name="Path 3631" d="M26.952,23.791a1,1,0,0,1-1-1V21.024a1,1,0,0,1,2,0v1.767A1,1,0,0,1,26.952,23.791Z" transform="translate(-2.542 -2.068)" fill="#41b780"/>
    <path id="Path_3632" data-name="Path 3632" d="M26.952,9.955a1,1,0,0,1-1-1V7.188a1,1,0,1,1,2,0V8.955A1,1,0,0,1,26.952,9.955Z" transform="translate(-2.542 -0.607)" fill="#41b780"/>
    <path id="Path_3633" data-name="Path 3633" d="M16.946,9.625H14.375a1,1,0,0,1,0-2h2.571a1,1,0,0,1,0,2Z" transform="translate(-1.214 -0.759)" fill="#41b780"/>
    <path id="Path_3634" data-name="Path 3634" d="M16.946,15.375H14.375a1,1,0,0,1,0-2h2.571a1,1,0,0,1,0,2Z" transform="translate(-1.214 -1.366)" fill="#41b780"/>
    <path id="Path_3635" data-name="Path 3635" d="M16.946,21.125H14.375a1,1,0,1,1,0-2h2.571a1,1,0,1,1,0,2Z" transform="translate(-1.214 -1.973)" fill="#41b780"/>
  </g>
</svg>
