<svg id="streamline-icon-print-text_22x22" data-name="streamline-icon-print-text@22x22" xmlns="http://www.w3.org/2000/svg" width="22" height="22" viewBox="0 0 22 22">
  <g id="Group_1717" data-name="Group 1717">
    <path id="Path_3684" data-name="Path 3684" d="M5.271,5.5a.917.917,0,0,0,.917-.917V1.833h8.1l1.98,1.98v.77a.917.917,0,0,0,1.833,0V3.438a.917.917,0,0,0-.266-.688L15.583.541A1.833,1.833,0,0,0,14.291,0h-8.1A1.833,1.833,0,0,0,4.354,1.833v2.75A.917.917,0,0,0,5.271,5.5Z" fill="#5c7080"/>
    <path id="Path_3685" data-name="Path 3685" d="M19.708,6.417H2.292A2.292,2.292,0,0,0,0,8.708v4.125a2.292,2.292,0,0,0,2.292,2.292H4.583v5.729A1.146,1.146,0,0,0,5.729,22h11a1.146,1.146,0,0,0,1.146-1.146V15.125h1.833A2.292,2.292,0,0,0,22,12.833V8.708A2.292,2.292,0,0,0,19.708,6.417Zm-16.5,4.125a.917.917,0,1,1,.917-.917A.917.917,0,0,1,3.208,10.542Zm12.833,9.167a.458.458,0,0,1-.458.458H6.875a.458.458,0,0,1-.458-.458v-8.25A.458.458,0,0,1,6.875,11h8.708a.458.458,0,0,1,.458.458Z" fill="#5c7080"/>
    <path id="Path_3686" data-name="Path 3686" d="M13.75,13.521H8.708a.688.688,0,1,0,0,1.375H13.75a.688.688,0,0,0,0-1.375Z" fill="#5c7080"/>
    <path id="Path_3687" data-name="Path 3687" d="M12.146,16.729H8.708a.688.688,0,1,0,0,1.375h3.438a.688.688,0,1,0,0-1.375Z" fill="#5c7080"/>
  </g>
</svg>
