<svg xmlns="http://www.w3.org/2000/svg" width="19.65" height="20.003" viewBox="0 0 19.65 20.003">
  <g id="settings_icon" data-name="settings icon" transform="translate(-2 -2)">
    <path id="Shape" d="M9.8,22h0a1,1,0,0,1-.947-.682l-.61-1.83a1,1,0,0,0-1.149-.66l-1.88.38a1,1,0,0,1-1.07-.48l-2-3.461a1,1,0,0,1,.1-1.17l1.27-1.44a1,1,0,0,0,0-1.319L2.244,9.9a1,1,0,0,1-.1-1.17l2-3.46a1,1,0,0,1,1-.48l1.93.38a1,1,0,0,0,1.15-.66l.56-1.831A1,1,0,0,1,9.731,2h4.052a1,1,0,0,1,.95.68l.609,1.831a1,1,0,0,0,1.15.66l1.88-.38a1,1,0,0,1,1.07.48l2,3.46a1,1,0,0,1-.12,1.17l-1.28,1.44a1,1,0,0,0,0,1.319l1.35,1.44a1,1,0,0,1,.12,1.17l-2,3.461a1,1,0,0,1-1.07.48l-1.88-.38a1,1,0,0,0-1.15.66l-.61,1.83a1,1,0,0,1-.947.68H9.8ZM7.3,16.8a2.994,2.994,0,0,1,2.847,2.061L10.5,20h2.56l.38-1.121a3,3,0,0,1,3.451-2l1.18.24,1.28-2.22-.8-.9a3,3,0,0,1,0-3.98l.8-.9L18.074,6.9l-1.18.24a3,3,0,0,1-3.451-2L13.063,4H10.5l-.381,1.13a3,3,0,0,1-3.45,2l-1.18-.24-1.28,2.2.8.9a3,3,0,0,1,0,4l-.8.9,1.3,2.21,1.18-.24A3.017,3.017,0,0,1,7.3,16.8Zm4.487-.8a4,4,0,1,1,4-4A4,4,0,0,1,11.784,16Zm0-6a2,2,0,1,0,2,2A2,2,0,0,0,11.784,10Z" fill="#fff"/>
  </g>
</svg>
