<svg xmlns="http://www.w3.org/2000/svg" width="6.385" height="11" viewBox="0 0 6.385 11">
  <g id="streamline-icon-interface-arrows-up_12x12" data-name="streamline-icon-interface-arrows-up@12x12" transform="translate(-2.5 0.071)">
    <g id="Group_2279" data-name="Group 2279" transform="translate(3 0.429)">
      <path id="Line_97" data-name="Line 97" d="M0,10.5A.5.5,0,0,1-.5,10V0A.5.5,0,0,1,0-.5.5.5,0,0,1,.5,0V10A.5.5,0,0,1,0,10.5Z" transform="translate(2.692)" fill="#1f2b34"/>
      <path id="Path_3700" data-name="Path 3700" d="M8.385,3.621a.5.5,0,0,1-.354-.146L5.692,1.136,3.354,3.474a.5.5,0,0,1-.707-.707L5.339.075a.5.5,0,0,1,.707,0L8.738,2.767a.5.5,0,0,1-.354.854Z" transform="translate(-3 -0.429)" fill="#1f2b34"/>
    </g>
  </g>
</svg>
