<svg id="streamline-icon-interface-arrows-up_12x12" data-name="streamline-icon-interface-arrows-up@12x12" xmlns="http://www.w3.org/2000/svg" width="6.385" height="11" viewBox="0 0 6.385 11">
  <g id="Group_2279" data-name="Group 2279">
    <path id="Line_97" data-name="Line 97" d="M0-.5A.5.5,0,0,0-.5,0V10a.5.5,0,0,0,.5.5A.5.5,0,0,0,.5,10V0A.5.5,0,0,0,0-.5Z" transform="translate(3.192 0.5)" fill="#1f2b34"/>
    <path id="Path_3700" data-name="Path 3700" d="M8.385-.071a.5.5,0,0,0-.354.146L5.692,2.414,3.354.075a.5.5,0,0,0-.707.707L5.339,3.474a.5.5,0,0,0,.707,0L8.738.782a.5.5,0,0,0-.354-.854Z" transform="translate(-2.5 7.379)" fill="#1f2b34"/>
  </g>
</svg>
