<svg xmlns="http://www.w3.org/2000/svg" width="38" height="38" viewBox="0 0 38 38">
  <g id="streamline-icon-real-estate-dimensions-block_46x46" data-name="streamline-icon-real-estate-dimensions-block@46x46" transform="translate(-0.438 -0.438)">
    <path id="Path_3595" data-name="Path 3595" d="M15.813,14.813h24a1,1,0,0,1,1,1v24a1,1,0,0,1-1,1h-24a1,1,0,0,1-1-1v-24A1,1,0,0,1,15.813,14.813Zm23,2h-22v22h22Z" transform="translate(-2.375 -2.375)" fill="#41b780"/>
    <path id="Path_3596" data-name="Path 3596" d="M21.813,25.438h-6a1,1,0,0,1,0-2h6a1,1,0,0,1,0,2Z" transform="translate(-2.375 -3.8)" fill="#41b780"/>
    <path id="Path_3597" data-name="Path 3597" d="M23.013,44.613a1,1,0,0,1-1-1v-3.8h-6.2a1,1,0,0,1,0-2h7.2a1,1,0,0,1,1,1v4.8A1,1,0,0,1,23.013,44.613Z" transform="translate(-2.375 -6.175)" fill="#41b780"/>
    <path id="Path_3598" data-name="Path 3598" d="M43.138,36.938h-7.2a1,1,0,0,1,0-2h7.2a1,1,0,0,1,0,2Z" transform="translate(-5.7 -5.7)" fill="#41b780"/>
    <path id="Path_3599" data-name="Path 3599" d="M42.9,22.813H34.5a1,1,0,0,1-1-1v-6a1,1,0,0,1,2,0v5h7.4a1,1,0,0,1,0,2Z" transform="translate(-5.463 -2.375)" fill="#41b780"/>
    <path id="Path_3600" data-name="Path 3600" d="M27.563,30.013h-6a1,1,0,0,1,0-2h5v-12.2a1,1,0,1,1,2,0v13.2A1,1,0,0,1,27.563,30.013Z" transform="translate(-3.325 -2.375)" fill="#41b780"/>
    <path id="Path_3601" data-name="Path 3601" d="M5.75,39.863a1,1,0,0,1-1-1v-28.8a1,1,0,1,1,2,0v28.8A1,1,0,0,1,5.75,39.863Z" transform="translate(-0.713 -1.425)" fill="#41b780"/>
    <path id="Path_3602" data-name="Path 3602" d="M5.038,44.85a1,1,0,0,1-.707-.293l-3.6-3.6a1,1,0,0,1,1.414-1.414l2.893,2.893L7.93,39.543a1,1,0,0,1,1.414,1.414l-3.6,3.6A1,1,0,0,1,5.038,44.85Z" transform="translate(0 -6.413)" fill="#41b780"/>
    <path id="Path_3603" data-name="Path 3603" d="M8.638,14.663a1,1,0,0,1-.707-.293L5.038,11.477,2.145,14.37A1,1,0,0,1,.73,12.955l3.6-3.6a1,1,0,0,1,1.414,0l3.6,3.6a1,1,0,0,1-.707,1.707Z" transform="translate(0 -1.425)" fill="#41b780"/>
    <path id="Path_3604" data-name="Path 3604" d="M38.863,6.75h-28.8a1,1,0,1,1,0-2h28.8a1,1,0,0,1,0,2Z" transform="translate(-1.425 -0.713)" fill="#41b780"/>
    <path id="Path_3605" data-name="Path 3605" d="M13.663,9.638a1,1,0,0,1-.707-.293l-3.6-3.6a1,1,0,0,1,0-1.414l3.6-3.6A1,1,0,0,1,14.37,2.145L11.477,5.038,14.37,7.93a1,1,0,0,1-.707,1.707Z" transform="translate(-1.425)" fill="#41b780"/>
    <path id="Path_3606" data-name="Path 3606" d="M40.25,9.638a1,1,0,0,1-.707-1.707l2.893-2.893L39.543,2.145A1,1,0,0,1,40.957.73l3.6,3.6a1,1,0,0,1,0,1.414l-3.6,3.6A1,1,0,0,1,40.25,9.638Z" transform="translate(-6.413)" fill="#41b780"/>
    <path id="Path_3607" data-name="Path 3607" d="M35.938,43.425a1,1,0,0,1-1-1v-10.8a1,1,0,0,1,2,0v10.8A1,1,0,0,1,35.938,43.425Z" transform="translate(-5.7 -4.988)" fill="#41b780"/>
  </g>
</svg>
