<svg xmlns="http://www.w3.org/2000/svg" width="35.75" height="35.75" viewBox="0 0 35.75 35.75">
  <g id="streamline-icon-legal-certificate_36x36" data-name="streamline-icon-legal-certificate@36x36" transform="translate(-0.125 -0.125)">
    <path id="Path_3637" data-name="Path 3637" d="M30.375,11.125a5.5,5.5,0,1,1,5.5-5.5A5.506,5.506,0,0,1,30.375,11.125Zm0-9a3.5,3.5,0,1,0,3.5,3.5A3.5,3.5,0,0,0,30.375,2.125Z" fill="#41b780"/>
    <path id="Path_3638" data-name="Path 3638" d="M7.875.126a1.726,1.726,0,0,1,1.546.949l0,.008,1.456,2.933,3.269.472a1.717,1.717,0,0,1,1.39,1.159l0,.006a1.721,1.721,0,0,1-.437,1.765L12.74,9.71l.557,3.231a1.721,1.721,0,0,1-1.7,2.007,1.742,1.742,0,0,1-.806-.2L7.875,13.228,4.963,14.751a1.735,1.735,0,0,1-1.808-.121,1.721,1.721,0,0,1-.7-1.687L3.014,9.71.653,7.415A1.719,1.719,0,0,1,.219,5.652l0,0a1.715,1.715,0,0,1,1.392-1.16l3.256-.47L6.325,1.082l0-.008A1.726,1.726,0,0,1,7.875.126ZM13.3,6.384l-2.842-.41a1.727,1.727,0,0,1-1.3-.937L7.875,2.458,6.6,5.035a1.731,1.731,0,0,1-1.279.938l-.012,0-2.842.41,2.053,2a1.713,1.713,0,0,1,.5,1.515l-.488,2.828,2.547-1.332a1.729,1.729,0,0,1,1.612,0l2.548,1.33L10.743,9.9a1.715,1.715,0,0,1,.5-1.519Z" fill="#41b780"/>
    <path id="Path_3639" data-name="Path 3639" d="M30.375,2.125H14.625a1,1,0,0,1,0-2h15.75a1,1,0,0,1,0,2Z" fill="#41b780"/>
    <path id="Path_3640" data-name="Path 3640" d="M19.125,35.875h-18a1,1,0,0,1,0-2,5.757,5.757,0,0,0,5.75-5.75v-9a1,1,0,0,1,2,0v9a7.733,7.733,0,0,1-2.559,5.75H19.125a5.757,5.757,0,0,0,5.75-5.75V5.625a1,1,0,0,1,2,0v22.5A7.759,7.759,0,0,1,19.125,35.875Z" fill="#41b780"/>
    <path id="Path_3641" data-name="Path 3641" d="M21.375,26.875h-9a1,1,0,0,1,0-2h9a1,1,0,0,1,0,2Z" fill="#41b780"/>
    <path id="Path_3642" data-name="Path 3642" d="M21.375,22.375h-9a1,1,0,0,1,0-2h9a1,1,0,0,1,0,2Z" fill="#41b780"/>
    <path id="Path_3643" data-name="Path 3643" d="M21.375,17.875h-4.5a1,1,0,0,1,0-2h4.5a1,1,0,0,1,0,2Z" fill="#41b780"/>
    <path id="Path_3644" data-name="Path 3644" d="M21.375,13.375h-4.5a1,1,0,0,1,0-2h4.5a1,1,0,0,1,0,2Z" fill="#41b780"/>
  </g>
</svg>
