<svg xmlns="http://www.w3.org/2000/svg" width="35.039" height="39.998" viewBox="0 0 35.039 39.998">
  <g id="streamline-icon-real-estate-update-house-refresh_46x46" data-name="streamline-icon-real-estate-update-house-refresh@46x46" transform="translate(-2.834 -0.437)">
    <path id="Path_3619" data-name="Path 3619" d="M16.785,12.506a1,1,0,0,1-.659-1.753l5.213-4.561L15.455,2.27A1,1,0,1,1,16.565.605l6.97,4.647a1,1,0,0,1,.1,1.585l-6.2,5.421A1,1,0,0,1,16.785,12.506Z" transform="translate(-1.254 0)" fill="#41b780"/>
    <path id="Path_3620" data-name="Path 3620" d="M20.427,41.413a17.481,17.481,0,0,1-6.421-1.223A17.685,17.685,0,0,1,20.44,6.063h1.65a1,1,0,0,1,0,2H20.44a15.664,15.664,0,1,0,13.213,24.02,1,1,0,1,1,1.7,1.061A17.607,17.607,0,0,1,20.427,41.413Z" transform="translate(0 -0.978)" fill="#41b780"/>
    <path id="Path_3621" data-name="Path 3621" d="M40.743,30.686a1,1,0,0,1-.969-1.249,14.557,14.557,0,0,0,.456-3.625,1,1,0,0,1,2,0,16.558,16.558,0,0,1-.519,4.124A1,1,0,0,1,40.743,30.686Z" transform="translate(-4.357 -2.735)" fill="#41b780"/>
    <path id="Path_3622" data-name="Path 3622" d="M40.125,20.434a1,1,0,0,1-.954-.7,14.424,14.424,0,0,0-1.559-3.368A1,1,0,1,1,39.3,15.3a16.425,16.425,0,0,1,1.775,3.836,1,1,0,0,1-.954,1.3Z" transform="translate(-3.96 -1.623)" fill="#41b780"/>
    <path id="Path_3623" data-name="Path 3623" d="M34.16,12.15a1,1,0,0,1-.65-.241A14.5,14.5,0,0,0,30.8,10.073,1,1,0,0,1,31.724,8.3a16.5,16.5,0,0,1,3.086,2.09,1,1,0,0,1-.651,1.759Z" transform="translate(-3.106 -0.897)" fill="#41b780"/>
    <path id="Path_3624" data-name="Path 3624" d="M25.208,35.938H18.083A2.19,2.19,0,0,1,15.9,33.75V30.188a1,1,0,0,1,2,0V33.75a.188.188,0,0,0,.188.188h7.125a.187.187,0,0,0,.188-.187V30.188a1,1,0,0,1,2,0V33.75a2.187,2.187,0,0,1-2.187,2.188Z" transform="translate(-1.236 -3.176)" fill="#41b780"/>
    <path id="Path_3625" data-name="Path 3625" d="M28.27,25.625a1,1,0,0,1-.64-.232l-6.485-5.4-6.485,5.4a1,1,0,0,1-1.28-1.536l7.125-5.938a1,1,0,0,1,1.28,0l7.125,5.938a1,1,0,0,1-.641,1.768Z" transform="translate(-0.734 -1.862)" fill="#41b780"/>
  </g>
</svg>
