<svg xmlns="http://www.w3.org/2000/svg" width="33.199" height="38" viewBox="0 0 33.199 38">
  <g id="streamline-icon-shield-home_46x46" data-name="streamline-icon-shield-home@46x46" transform="translate(-3.312 -0.436)">
    <path id="Path_3615" data-name="Path 3615" d="M19.589.436h.645A35.508,35.508,0,0,1,34.523,3.418l.016.007a3.384,3.384,0,0,1,1.972,3.092V18.7A20.05,20.05,0,0,1,23.66,37.409l-1.666.64a5.8,5.8,0,0,1-4.164,0l-1.665-.64A20.05,20.05,0,0,1,3.313,18.7V6.517A3.384,3.384,0,0,1,5.285,3.425L5.3,3.418A35.506,35.506,0,0,1,19.589.436Zm.323,2H19.59A33.52,33.52,0,0,0,6.111,5.247a1.381,1.381,0,0,0-.8,1.26s0,0,0,.007V18.7a18.05,18.05,0,0,0,11.57,16.847l1.665.64a3.8,3.8,0,0,0,2.729,0l1.666-.64A18.05,18.05,0,0,0,34.511,18.7V6.514s0,0,0-.007a1.381,1.381,0,0,0-.8-1.26A33.52,33.52,0,0,0,20.234,2.436Z" fill="#41b780"/>
    <path id="Path_3616" data-name="Path 3616" d="M26.375,28.875h-9.6a3.4,3.4,0,0,1-3.4-3.4V16.192a1,1,0,0,1,2,0v9.28a1.4,1.4,0,0,0,1.4,1.4h9.6a1.4,1.4,0,0,0,1.4-1.4V16.2a1,1,0,0,1,2,0v9.28A3.4,3.4,0,0,1,26.375,28.875Z" transform="translate(-1.663 -2.439)" fill="#41b780"/>
    <path id="Path_3617" data-name="Path 3617" d="M11.5,18.278a1,1,0,0,1-.659-1.753L18.07,10.2a4.612,4.612,0,0,1,6.06,0l7.228,6.324a1,1,0,1,1-1.317,1.505l-7.229-6.325a2.606,2.606,0,0,0-3.425,0l-7.229,6.325A1,1,0,0,1,11.5,18.278Z" transform="translate(-1.188 -1.425)" fill="#41b780"/>
    <path id="Path_3618" data-name="Path 3618" d="M24.925,29.762h-4.8a1,1,0,0,1-1-1v-4.8a3.4,3.4,0,1,1,6.8,0v4.8A1,1,0,0,1,24.925,29.762Zm-3.8-2h2.8v-3.8a1.4,1.4,0,1,0-2.8,0Z" transform="translate(-2.613 -3.326)" fill="#41b780"/>
  </g>
</svg>
