<svg xmlns="http://www.w3.org/2000/svg" width="25.25" height="25.25" viewBox="0 0 25.25 25.25"><defs><style>.a{fill:none;stroke:#44accd;stroke-linecap:round;stroke-linejoin:round;stroke-width:1.25px;}</style></defs><g transform="translate(-3.75 -3.75)"><path class="a" d="M65.625,72.025a6.4,6.4,0,1,0,6.4-6.4A6.4,6.4,0,0,0,65.625,72.025Z" transform="translate(-50.05 -50.05)"/><path class="a" d="M100.625,83.125v6.4" transform="translate(-78.65 -64.35)"/><path class="a" d="M83.125,100.625h6.4" transform="translate(-64.35 -78.65)"/><path class="a" d="M4.375,68.457A7.2,7.2,0,0,1,14.4,61.836" transform="translate(0 -46.482)"/><path class="a" d="M19.687,8.775a4.4,4.4,0,1,0,4.4-4.4,4.4,4.4,0,0,0-4.4,4.4Z" transform="translate(-12.512)"/></g></svg>