<?xml version="1.0" encoding="UTF-8"?> <svg xmlns="http://www.w3.org/2000/svg" viewBox="0 0 180.41 151.89"><defs><style>.cls-1{fill:#39b276;fill-rule:evenodd;}</style></defs><g id="Layer_2" data-name="Layer 2"><g id="Layer_1-2" data-name="Layer 1"><path class="cls-1" d="M56.69,115.47v2.19a4.21,4.21,0,0,1-4.21,4.2H29.19A4.19,4.19,0,0,1,25,117.68v-7.85c0-6.43.06-12.86,0-19.29H4.23A4.2,4.2,0,0,1,0,86.35a4.25,4.25,0,0,1,1.23-3L80.61,4A13.63,13.63,0,0,1,99.88,4l.05,0,79.23,79.22a4.21,4.21,0,0,1-2.94,7.21H155.43c-.22,15.06-.15,24.79-.08,36.33,0,6,.09,12.5.1,20.49v.38a4.2,4.2,0,0,1-4.2,4.2h-84A4.19,4.19,0,0,1,63,147.7h0v-53a25.16,25.16,0,0,1,.18-3,25.75,25.75,0,0,1,.51-3A27.15,27.15,0,0,1,109.21,75.2l.25.24a28.55,28.55,0,0,1,2.3,2.62A28.12,28.12,0,0,1,113.71,81a29.27,29.27,0,0,1,1.83,3.73,28,28,0,0,1,1.24,4,25.75,25.75,0,0,1,.51,3,26.75,26.75,0,0,1-1.9,13.41,27.5,27.5,0,0,1-14.76,14.76,26.83,26.83,0,0,1-10.38,2.08H84.14a4.2,4.2,0,0,1-4.2-4.2v-2.19a4.21,4.21,0,0,1,4.2-4.21h6.11a16.74,16.74,0,0,0,16.6-16.71,18.18,18.18,0,0,0-.2-2.65,17.62,17.62,0,0,0-.64-2.55,16.92,16.92,0,0,0-1.62-3.51,17.45,17.45,0,0,0-2.22-2.85l-.29-.28h0a16.56,16.56,0,0,0-23.33,0l-.09.07a16.74,16.74,0,0,0-3.95,6.26l-.08.3A15.35,15.35,0,0,0,73.79,92a15.77,15.77,0,0,0-.2,2.65v46.9h71.48V84.31a4.21,4.21,0,0,1,4.2-4.21h12L94.57,13.4c-2.24-2.24-6.12-2.62-8.4-.33L21.44,77.84c-.76.77-1.52,1.53-2.29,2.29h12a4.22,4.22,0,0,1,4.21,4.21h0v26.92H52.47A4.23,4.23,0,0,1,56.69,115.47Z"></path></g></g></svg> 