<svg xmlns="http://www.w3.org/2000/svg" width="235.242" height="52" viewBox="0 0 235.242 52"><defs><style>.a{fill:#39b276;}.a,.b{fill-rule:evenodd;}.b{fill:#182a33;}</style></defs><g transform="translate(-54.094 -52.035)"><path class="a" d="M73.491,91.549V92.3a1.441,1.441,0,0,1-1.441,1.437H64.081a1.434,1.434,0,0,1-1.434-1.43V89.619c0-2.2.021-4.4,0-6.6H55.54a1.441,1.441,0,0,1-1.027-2.457L81.676,53.392a4.664,4.664,0,0,1,6.611.034L115.4,80.534A1.441,1.441,0,0,1,114.392,83h-7.114c-.075,5.153-.051,8.483-.027,12.431,0,2.053.031,4.277.034,7.011v.13a1.437,1.437,0,0,1-1.437,1.437H77.1a1.437,1.437,0,0,1-1.441-1.437V84.421a9.137,9.137,0,0,1,.062-1.027,8.812,8.812,0,0,1,.175-1.027,9.365,9.365,0,0,1,5.519-6.539,9.276,9.276,0,0,1,10.043,1.94.969.969,0,0,1,.086.082,8.977,8.977,0,0,1,.787.9,9.24,9.24,0,0,1,.667.989,9.581,9.581,0,0,1,.626,1.276,9.24,9.24,0,0,1,.424,1.369,8.809,8.809,0,0,1,.174,1.027A9.112,9.112,0,0,1,93.577,88a9.41,9.41,0,0,1-5.051,5.051,9.218,9.218,0,0,1-3.552.712H82.884a1.437,1.437,0,0,1-1.437-1.437v-.749a1.441,1.441,0,0,1,1.437-1.441h2.091a5.714,5.714,0,0,0,5.249-3.548,5.591,5.591,0,0,0,.431-2.169,5.779,5.779,0,0,0-.068-.907,5.337,5.337,0,0,0-.219-.873,5.578,5.578,0,0,0-.554-1.2,5.711,5.711,0,0,0-.76-.975l-.1-.1h0a5.663,5.663,0,0,0-7.983,0l-.031.024a5.766,5.766,0,0,0-1.352,2.142l-.027.1a5.339,5.339,0,0,0-.219.873,5.781,5.781,0,0,0-.068.907v16.048h24.459V80.886a1.441,1.441,0,0,1,1.437-1.441h4.106L86.453,56.622a2.07,2.07,0,0,0-2.874-.113L61.429,78.672c-.26.263-.52.524-.784.784h4.106A1.441,1.441,0,0,1,66.192,80.9v9.212h5.855a1.444,1.444,0,0,1,1.444,1.441Z"/><path class="b" d="M279.984,126.342v-.062c0-4.568-3.223-7.726-8.555-7.726h-9.14V140.9h4.917v-6.707h3.733c5.013,0,9.037-2.679,9.037-7.853Zm123.586-4.6h0a2.9,2.9,0,0,0,2.891-2.891h0a2.9,2.9,0,0,0-2.891-2.891h0a2.9,2.9,0,0,0-2.891,2.891h0a2.9,2.9,0,0,0,2.891,2.891ZM275,126.438c0,1.916-1.437,3.384-3.894,3.384h-3.894v-6.844h3.8c2.457,0,3.99,1.184,3.99,3.384v.065Zm18.423,2.108v-5.078c-2.874-.127-4.469,1.406-5.458,3.764v-3.442H283.1V140.9h4.856v-6.32c0-4.086,1.978-6.033,5.2-6.033Zm20.24,3.832v-.065a8.9,8.9,0,0,0-9.239-8.845,8.992,8.992,0,0,0-9.29,8.9v.062a8.9,8.9,0,0,0,9.239,8.845,8.992,8.992,0,0,0,9.29-8.9Zm-4.791.062a4.386,4.386,0,0,1-4.448,4.661,4.545,4.545,0,0,1-4.5-4.722v-.065a4.388,4.388,0,0,1,4.448-4.66,4.546,4.546,0,0,1,4.5,4.726Zm26.276-.062v-.065c0-5.714-3.8-8.845-7.791-8.845a6.288,6.288,0,0,0-5.331,2.779v-2.457h-4.849V146.01h4.852v-7.343a6.57,6.57,0,0,0,5.331,2.553c4.055,0,7.791-3.128,7.791-8.842Zm-4.852,0c0,2.871-1.916,4.722-4.185,4.722s-4.151-1.882-4.151-4.722v-.065c0-2.844,1.885-4.726,4.151-4.726s4.178,1.882,4.178,4.726v.065Zm25,8.524v-4.469H344.15V118.554h-4.917V140.9Zm20.562-8.524v-.065a8.9,8.9,0,0,0-9.239-8.845,8.994,8.994,0,0,0-9.29,8.9v.062a8.9,8.9,0,0,0,9.239,8.845,8.994,8.994,0,0,0,9.29-8.9Zm-4.791.062a4.386,4.386,0,0,1-4.448,4.661,4.544,4.544,0,0,1-4.5-4.722v-.065a4.386,4.386,0,0,1,4.448-4.66,4.543,4.543,0,0,1,4.5,4.726Zm25.51,4.6V123.789H391.72v2.234a6.931,6.931,0,0,0-5.523-2.556c-3.928,0-7.6,2.874-7.6,7.983v.065c0,5.075,3.61,7.98,7.6,7.98a6.693,6.693,0,0,0,5.588-2.779v.831c0,3.08-1.564,4.661-4.886,4.661a11.189,11.189,0,0,1-5.78-1.564l-1.66,3.641a16.24,16.24,0,0,0,7.566,1.8c6.354,0,9.547-2.587,9.547-9.034Zm-4.79-5.523a3.956,3.956,0,0,1-4.185,3.959,3.906,3.906,0,0,1-4.147-3.959v-.065a4.171,4.171,0,0,1,8.332,0Zm14.207,9.386V123.793h-4.849V140.9Zm20.305,0-6.012-8.78,5.779-8.332h-5.1l-3.227,4.979-3.193-4.979h-5.215l5.779,8.428-6,8.685h5.075l3.449-5.331,3.449,5.331Z" transform="translate(-136.955 -42.051)"/></g></svg>
